<svg height="240" viewBox="0 0 190.49999 63.5" width="720" xmlns="http://www.w3.org/2000/svg"><g stroke-linecap="square" stroke-miterlimit="100"><path d="m189.80892 31.841009a94.560539 31.059473 0 0 1 -94.560537 31.059473 94.560539 31.059473 0 0 1 -94.56053968-31.059473 94.560539 31.059473 0 0 1 94.56053968-31.0594729 94.560539 31.059473 0 0 1 94.560537 31.0594729z" stroke-width=".529167"/><path d="m23.281988 51.358739v-39.085586l-4.233333 1.737361v35.624075z" fill="#f00" stroke-width=".529167"/><path d="m167.4799 51.285992v-39.085585l4.23334 1.737361v35.624073z" fill="#f00" stroke-width=".529167"/></g><path d="m86.621778 1.5088369v60.6100631l5.176672.00001v-60.7385332z" fill="#b3e51e"/><path d="m105.60291 1.3803771v60.7385229l-6.902233.000015v-60.7385379z" fill="#b3e51e"/><path d="m59.012863 3.7737061v56.0459669l3.794838.467348.0014-56.992388z" fill="#ff0"/><path d="m131.31367 3.6905451v56.0459689l-3.79484.467348-.001-56.99239z" fill="#ff0"/><g stroke-linecap="square" stroke-miterlimit="100"><g stroke-width=".529167"><path d="m33.129509 16.565008h-3.451116" fill="none" stroke="#f00"/><path d="m37.270846 29.679007h-3.451115" fill="none" stroke="#f00"/><path d="m33.129509 44.863637h-3.451116" fill="none" stroke="#f00"/><path d="m43.482852 44.863637h-3.451116" fill="none" stroke="#f00"/><path d="m43.482852 16.565008h-3.451116" fill="none" stroke="#f00"/><path d="m52.800859 16.565008h-3.451115" fill="none" stroke="#f00"/><path d="m52.800859 44.863637h-3.451115" fill="none" stroke="#f00"/><path d="m47.279078 29.679007h2.070669" fill="none" stroke="#f00"/><path d="m157.36962 16.565008h3.45112" fill="none" stroke="#f00"/><path d="m153.22829 29.679007h3.45111" fill="none" stroke="#f00"/><path d="m157.36962 44.863637h3.45112" fill="none" stroke="#f00"/><path d="m147.01628 44.863637h3.45112" fill="none" stroke="#f00"/><path d="m147.01628 16.565008h3.45112" fill="none" stroke="#f00"/><path d="m137.69827 16.565008h3.45112" fill="none" stroke="#f00"/><path d="m137.69827 44.863637h3.45112" fill="none" stroke="#f00"/><path d="m143.22005 29.679007h-2.07066" fill="none" stroke="#f00"/><path d="m66.950426 46.554561h1.725558" fill="none" stroke="#ff0"/><path d="m76.613546 46.554561h1.881189" fill="#ff0" stroke="#ff0"/><path d="m78.684215 37.961533h3.796226" fill="#ff0" stroke="#ff0"/><path d="m72.817321 37.961533h-3.946547" fill="#ff0" stroke="#ff0"/><path d="m69.021095 29.679007h3.451114" fill="#ff0" stroke="#ff0"/><path d="m78.684215 29.679007h3.959039" fill="#ff0" stroke="#ff0"/><path d="m82.480441 21.39648h-3.796226" fill="#ff0" stroke="#ff0"/><path d="m72.817321 21.39648h-3.977051" fill="#ff0" stroke="#ff0"/><path d="m78.684215 13.113955h-1.725557" fill="#ff0" stroke="#ff0"/><path d="m69.021095 13.113955h-2.070669" fill="#ff0" stroke="#ff0"/><path d="m124.58405 46.554561h-1.72556" fill="none" stroke="#ff0"/><path d="m114.92093 46.554561h-1.88119" fill="#ff0" stroke="#ff0"/><path d="m112.85026 37.961533h-3.79623" fill="#ff0" stroke="#ff0"/><path d="m118.71715 37.961533h3.94655" fill="#ff0" stroke="#ff0"/><path d="m122.51338 29.679007h-3.45112" fill="#ff0" stroke="#ff0"/><path d="m112.85026 29.679007h-3.95904" fill="#ff0" stroke="#ff0"/><path d="m109.05403 21.39648h3.79623" fill="#ff0" stroke="#ff0"/><path d="m118.71715 21.39648h3.97705" fill="#ff0" stroke="#ff0"/><path d="m112.85026 13.113955h1.72555" fill="#ff0" stroke="#ff0"/><path d="m122.51338 13.113955h2.07067" fill="#ff0" stroke="#ff0"/><path d="m88.347343 3.4510095h3.451115v2.0706315h-3.451115z" fill="#23b147"/><path d="m88.347328 57.287426h3.451115v2.070631h-3.451115z" fill="#23b147"/><path d="m88.347343 7.5922728h3.451115v2.7608422h-3.451115z" fill="#23b147"/><path d="m88.347328 12.423745h3.451115v4.831473h-3.451115z" fill="#23b147"/><path d="m88.347343 37.27132h3.451115v4.831473h-3.451115z" fill="#23b147"/></g><path d="m88.347328 19.325851h3.451115v15.874841h-3.451115z" fill="#23b147" stroke-width=".529166"/><path d="m88.347328 44.173428h3.451115v4.831472h-3.451115z" fill="#23b147" stroke-width=".529167"/><path d="m88.347343 50.730427h3.451115v3.796155h-3.451115z" fill="#23b147" stroke-width=".529167"/><path d="m98.700676 3.4510095h3.451114v2.0706315h-3.451114z" fill="#23b147" stroke-width=".529167"/><path d="m98.700668 57.287426h3.451112v2.070631h-3.451112z" fill="#23b147" stroke-width=".529167"/><path d="m98.700676 7.5922718h3.451114v2.7608422h-3.451114z" fill="#23b147" stroke-width=".529167"/><path d="m98.700668 12.423745h3.451112v4.831473h-3.451112z" fill="#23b147" stroke-width=".529167"/><path d="m98.700676 37.271317h3.451114v4.831472h-3.451114z" fill="#23b147" stroke-width=".529167"/><path d="m98.700668 19.325851h3.451112v15.874841h-3.451112z" fill="#23b147" stroke-width=".529166"/><path d="m98.700668 44.173428h3.451112v4.831472h-3.451112z" fill="#23b147" stroke-width=".529167"/><path d="m98.700676 50.730427h3.451114v3.796155h-3.451114z" fill="#23b147" stroke-width=".529167"/><path d="m95.24872.0001453c-26.222732.0259452-49.962104 3.5246078-67.164257 9.1713215-8.601077 2.8233572-15.564127 6.1788532-20.4060731 9.9300792-2.4209731 1.875613-4.3135495 3.846593-5.6224972 5.941306-1.30894765 2.094711-2.05589269 4.369688-2.0558927 6.79884.00000001 2.429154.74694505 4.707748 2.0558927 6.799868 1.3089477 2.092124 3.2015241 4.059358 5.6224972 5.930181 4.8419461 3.741642 11.8049961 7.083359 20.4060731 9.889697 17.202153 5.612675 40.941525 9.06436 67.164257 9.038415 26.22274-.02594 49.96211-3.524607 67.16426-9.171321 8.60108-2.823359 15.56668-6.178856 20.40862-9.93008 2.42097-1.875613 4.311-3.846591 5.61995-5.941304 1.30895-2.094711 2.05844-4.374786 2.05844-6.80394 0-2.429151-.74949-4.702648-2.05844-6.794768-1.30895-2.092124-3.19898-4.059361-5.61995-5.930184-4.84194-3.741644-11.80754-7.083358-20.40862-9.8896952-17.20215-5.6126741-40.94152-9.0643606-67.16426-9.0384155zm0 1.3807606c26.19222-.025915 49.90778 3.4285809 67.05472 9.0232391 8.57346 2.797329 15.50548 6.132747 20.2685 9.813409 2.38151 1.84033 4.21956 3.772292 5.43907 5.721463 1.21951 1.94917 1.79859 3.85561 1.79859 5.714874 0 1.859267-.57908 3.771948-1.79859 5.723532-1.21951 1.951581-3.05756 3.887183-5.43907 5.732225-4.76302 3.690085-11.69504 7.039223-20.2685 9.853515-17.14694 5.62859-40.8625 9.130014-67.05472 9.155929-26.192213.025915-49.905227-3.428583-67.052163-9.023241-8.573469-2.797327-15.508023-6.132746-20.2710524-9.813405-2.3815143-1.84033-4.219563-3.772295-5.4390718-5.721463-1.2195088-1.94917-1.79858764-3.860705-1.79858764-5.719972 0-1.859264.57907884-3.76685 1.79858764-5.718434s3.0575575-3.887183 5.4390718-5.732225c4.7630294-3.690088 11.6975834-7.039226 20.2710524-9.85352 17.146936-5.6285889 40.85995-9.1300109 67.052163-9.1559261z" fill="#b3e51e"/></g></svg>