<svg height="600" viewBox="0 0 475.528 356.646" width="800" xmlns="http://www.w3.org/2000/svg"><g fill="#f00" stroke="none" stroke-width=".998207" transform="matrix(.99745904 0 0 1.0061465 -3.356712 -38.847276)"><path d="m271.53117 95.87223-14.86025 14.86025 29.7205 29.7205-29.7205 29.7205 29.7205 29.7205-29.7205 29.7205 29.7205 29.7205-29.7205 29.7205 29.7205 29.7205-29.7205 29.7205 29.7205 29.7205-14.86025 14.86025c167.44827-95.1056 260.96931-250.79488 178.32301-326.9255-82.65433-76.1315249-178.32301 29.7205-178.32301 29.7205z"/><path d="m96.345735 38.677682c-20.591868.782368-42.06819 8.441167-62.729991 27.474048-82.645418 76.12169 15.181755 234.26615 178.322996 326.9255l14.86025-14.86025-29.7205-29.7205 29.7205-29.7205-29.7205-29.7205 29.7205-29.7205-29.7205-29.7205 29.7205-29.7205-29.7205-29.7205 29.7205-29.7205-29.7205-29.7205 14.86025-14.86025s-53.8174-59.541653-115.593005-57.194548z"/></g></svg>