<?xml version="1.0" encoding="UTF-8" standalone="no"?>
<!-- Uploaded to: SVG Repo, www.svgrepo.com, Generator: SVG Repo Mixer Tools -->

<svg
   fill="#000000"
   version="1.1"
   id="Capa_1"
   width="700.00006"
   height="600"
   viewBox="0 0 416.08704 356.646"
   xml:space="preserve"
   sodipodi:docname="heart-shape-svgrepo-com-broking.svg"
   inkscape:version="1.4.2 (f4327f4, 2025-05-13)"
   xmlns:inkscape="http://www.inkscape.org/namespaces/inkscape"
   xmlns:sodipodi="http://sodipodi.sourceforge.net/DTD/sodipodi-0.dtd"
   xmlns="http://www.w3.org/2000/svg"
   xmlns:svg="http://www.w3.org/2000/svg"><defs
   id="defs2" /><sodipodi:namedview
   id="namedview2"
   pagecolor="#ffffff"
   bordercolor="#000000"
   borderopacity="0.25"
   inkscape:showpageshadow="2"
   inkscape:pageopacity="0.0"
   inkscape:pagecheckerboard="0"
   inkscape:deskcolor="#d1d1d1"
   inkscape:zoom="0.44156252"
   inkscape:cx="736.02262"
   inkscape:cy="458.59871"
   inkscape:window-width="1920"
   inkscape:window-height="1009"
   inkscape:window-x="1912"
   inkscape:window-y="-8"
   inkscape:window-maximized="1"
   inkscape:current-layer="g1"
   showgrid="true"
   inkscape:document-units="px"
   showguides="true"><inkscape:grid
     id="grid1"
     units="px"
     originx="0"
     originy="0"
     spacingx="0.59441"
     spacingy="0.59441"
     empcolor="#0099e5"
     empopacity="0.30196078"
     color="#0099e5"
     opacity="0.14901961"
     empspacing="5"
     enabled="true"
     visible="true" /></sodipodi:namedview>
<g
   id="g2"
   transform="translate(0.04571677,-50.139728)">
	<g
   id="g1"
   style="fill:none;stroke:#000000"
   transform="translate(-3.9409605,13.708498)">
		<path
   d="m 211.93874,393.07723 c 167.44827,-95.1056 260.96931,-250.79488 178.32301,-326.9255 -82.65433,-76.131525 -178.32301,29.7205 -178.32301,29.7205 0,0 -95.67579,-105.852025 -178.322996,-29.7205 -82.645418,76.12169 15.18175,234.26615 178.322996,326.9255 z"
   id="path1"
   style="fill:#ff0000;stroke:none;stroke-width:0.89188"
   sodipodi:nodetypes="ccccc" />
	<path
   style="baseline-shift:baseline;display:inline;overflow:visible;opacity:1;vector-effect:none;fill:#000000;stroke:none;enable-background:accumulate;stop-color:#000000;stop-opacity:1"
   d="m 211.93874,95.87223 -1.05007,-1.049964 -15.91211,15.910154 29.72071,29.7207 -29.72071,29.72071 29.72071,29.7207 -29.72071,29.7207 29.72071,29.72071 -29.72071,29.71875 29.72071,29.7207 -29.72071,29.7207 29.72071,29.72071 -14.13154,14.07817 1.37301,0.78226 c 1.64511,-0.93836 3.28808,-1.88039 4.92758,-2.82851 l 12.03407,-12.03192 -29.7207,-29.72071 29.7207,-29.7207 -29.7207,-29.7207 29.7207,-29.71875 -29.7207,-29.72071 29.7207,-29.7207 -29.7207,-29.7207 29.7207,-29.72071 -29.7207,-29.7207 13.94787,-13.871693 v -2.281848 z"
   id="path2"
   sodipodi:nodetypes="cccccccccccccccccccccccccccc" /></g>
</g>
</svg>
